<?xml version="1.0" encoding="UTF-8" ?>
<!DOCTYPE svg PUBLIC "-//W3C//DTD SVG 1.1//EN" "http://www.w3.org/Graphics/SVG/1.1/DTD/svg11.dtd">
<svg width="801pt" height="800pt" viewBox="0 0 801 800" version="1.1" xmlns="http://www.w3.org/2000/svg">
<path fill="#000000" opacity="1.00" d=" M 482.76 237.76 C 490.80 229.38 497.83 220.08 505.96 211.78 C 495.18 238.06 481.83 263.18 470.01 289.00 C 455.36 320.68 439.52 351.82 425.93 383.97 C 453.68 384.10 481.44 383.86 509.19 384.08 C 502.27 392.49 494.94 400.53 487.38 408.36 C 434.61 467.27 381.31 525.70 329.28 585.27 C 323.15 592.51 316.03 598.80 309.84 605.99 C 336.24 549.67 363.60 493.79 389.25 437.11 C 360.78 436.82 332.32 437.16 303.85 436.92 C 344.40 394.34 382.58 349.61 422.01 306.02 C 442.38 283.37 461.78 259.86 482.76 237.76 Z" />
<path fill="#000000" opacity="1.00" d=" M 169.00 332.00 C 185.00 331.98 201.00 331.99 217.01 332.01 C 216.97 349.45 216.91 366.90 217.20 384.35 C 231.41 367.88 243.34 349.61 256.25 332.13 C 273.86 331.93 291.47 331.94 309.08 332.04 C 294.37 352.95 279.43 373.70 264.13 394.18 C 282.46 424.76 301.41 454.98 319.06 485.96 C 299.74 486.07 280.42 486.01 261.10 485.96 C 250.39 468.24 240.23 450.20 229.36 432.59 C 224.59 436.75 219.94 441.27 217.48 447.25 C 216.44 460.14 217.00 473.08 217.02 485.99 C 201.11 486.03 185.21 486.12 169.32 485.77 C 168.59 434.52 169.19 383.26 169.00 332.00 Z" />
<path fill="#000000" opacity="1.00" d=" M 311.76 332.02 C 328.14 331.97 344.53 331.99 360.92 332.01 C 360.98 339.91 362.57 347.91 361.67 355.78 C 348.73 373.58 333.03 389.24 318.06 405.34 C 315.63 380.93 313.07 356.52 311.76 332.02 Z" />
<path fill="#000000" opacity="1.00" d=" M 462.25 332.12 C 468.85 332.05 475.45 332.00 482.06 331.98 C 480.64 345.33 479.13 358.69 477.15 371.98 C 466.11 371.99 455.08 372.00 444.04 372.01 C 450.34 358.82 456.56 345.58 462.25 332.12 Z" />
<path fill="#000000" opacity="1.00" d=" M 489.00 332.01 C 509.00 332.06 529.00 331.91 549.01 331.95 C 562.11 331.69 575.29 333.38 587.80 337.35 C 603.34 343.09 617.70 353.42 626.06 367.96 C 642.69 396.25 639.68 435.06 617.73 459.73 C 602.86 476.72 580.11 484.85 557.98 485.72 C 535.00 486.47 512.00 485.80 489.01 486.00 C 489.17 467.65 488.63 449.30 489.03 430.96 C 487.62 425.43 492.05 421.81 495.08 418.11 C 509.16 403.11 522.56 387.51 536.16 372.09 C 520.43 371.98 504.71 371.96 488.99 372.00 C 489.00 358.66 489.00 345.33 489.00 332.01 M 537.00 371.83 C 536.99 396.61 536.99 421.38 537.00 446.16 C 545.37 445.82 553.90 446.13 562.10 444.08 C 575.15 440.66 585.26 428.80 587.75 415.71 C 589.59 402.75 585.96 388.08 575.05 379.95 C 564.41 371.50 549.86 371.55 537.00 371.83 Z" />
<path fill="#000000" opacity="1.00" d=" M 433.82 485.95 C 446.43 470.88 459.55 456.25 473.05 441.97 C 471.55 456.54 469.90 471.10 468.50 485.69 C 456.94 485.99 445.38 486.05 433.82 485.95 Z" />
<path fill="#000000" opacity="1.00" d=" M 321.00 448.03 C 337.68 447.98 354.35 447.96 371.03 448.02 C 365.49 460.75 359.58 473.32 354.05 486.05 C 344.33 485.99 334.61 485.97 324.89 486.00 C 323.41 473.36 322.35 460.68 321.00 448.03 Z" />
</svg>
